<svg width="25" height="25" viewBox="0 0 25 25" fill="none" xmlns="http://www.w3.org/2000/svg">
<g clip-path="url(#clip0_1069_5490)">
<path d="M12.8584 0.376953C6.23104 0.376953 0.858398 5.74959 0.858398 12.377C0.858398 18.0045 4.73296 22.7267 9.95968 24.0237V16.0442H7.48528V12.377H9.95968V10.7968C9.95968 6.71247 11.8082 4.81935 15.8181 4.81935C16.5784 4.81935 17.8902 4.96863 18.4269 5.11743V8.44143C18.1437 8.41167 17.6517 8.39679 17.0406 8.39679C15.0731 8.39679 14.3128 9.14223 14.3128 11.08V12.377H18.2325L17.559 16.0442H14.3128V24.2891C20.2547 23.5715 24.8589 18.5123 24.8589 12.377C24.8584 5.74959 19.4858 0.376953 12.8584 0.376953Z" fill="white"/>
</g>
<defs>
<clipPath id="clip0_1069_5490">
<rect width="24" height="24" fill="white" transform="translate(0.858398 0.376953)"/>
</clipPath>
</defs>
</svg>
