<svg width="25" height="25" viewBox="0 0 25 25" fill="none" xmlns="http://www.w3.org/2000/svg">
<path d="M2.49452 21.6641H6.3127V12.3913L0.858154 8.30042V20.0277C0.858154 20.9318 1.59043 21.6641 2.49452 21.6641Z" fill="white"/>
<path d="M19.4036 21.6641H23.2218C24.1259 21.6641 24.8582 20.9318 24.8582 20.0277V8.30043L19.4036 12.3913V21.6641Z" fill="white"/>
<path d="M19.4036 5.30044V12.3913L24.8582 8.30043V6.11862C24.8582 4.09635 22.5495 2.94135 20.9309 4.15499L19.4036 5.30044Z" fill="white"/>
<path fill-rule="evenodd" clip-rule="evenodd" d="M6.3127 12.3913V5.30043L12.8582 10.2095L19.4036 5.30044V12.3913L12.8582 17.3004L6.3127 12.3913Z" fill="white"/>
<path d="M0.858154 6.11862V8.30042L6.3127 12.3913V5.30043L4.78543 4.15499C3.16679 2.94135 0.858154 4.09635 0.858154 6.11862Z" fill="white"/>
</svg>
