<svg width="25" height="25" viewBox="0 0 25 25" fill="none" xmlns="http://www.w3.org/2000/svg">
<path d="M12.859 0.659668C9.6 0.659668 9.19099 0.673918 7.91098 0.732168C6.63346 0.790668 5.76146 0.992918 4.99845 1.28967C4.20919 1.59617 3.53968 2.00617 2.87268 2.67342C2.20517 3.34042 1.79516 4.00992 1.48766 4.79892C1.19016 5.56217 0.987656 6.43442 0.930155 7.71142C0.873154 8.99142 0.858154 9.40067 0.858154 12.6597C0.858154 15.9187 0.872655 16.3264 0.930655 17.6064C0.989406 18.8839 1.19166 19.7559 1.48816 20.5189C1.79491 21.3082 2.20492 21.9777 2.87218 22.6447C3.53893 23.3122 4.20844 23.7232 4.9972 24.0297C5.76071 24.3264 6.63297 24.5287 7.91023 24.5872C9.19024 24.6454 9.599 24.6597 12.8578 24.6597C16.1171 24.6597 16.5248 24.6454 17.8048 24.5872C19.0823 24.5287 19.9554 24.3264 20.7189 24.0297C21.5079 23.7232 22.1764 23.3122 22.8431 22.6447C23.5106 21.9777 23.9206 21.3082 24.2281 20.5192C24.5232 19.7559 24.7257 18.8837 24.7857 17.6067C24.8432 16.3267 24.8582 15.9187 24.8582 12.6597C24.8582 9.40067 24.8432 8.99167 24.7857 7.71167C24.7257 6.43417 24.5232 5.56217 24.2281 4.79917C23.9206 4.00992 23.5106 3.34042 22.8431 2.67342C22.1756 2.00592 21.5081 1.59592 20.7181 1.28967C19.9531 0.992918 19.0806 0.790668 17.8031 0.732168C16.5231 0.673918 16.1156 0.659668 12.8555 0.659668H12.859ZM11.7825 2.82217C12.102 2.82167 12.4585 2.82217 12.859 2.82217C16.0631 2.82217 16.4428 2.83367 17.7081 2.89117C18.8781 2.94467 19.5131 3.14017 19.9361 3.30442C20.4961 3.52192 20.8954 3.78192 21.3151 4.20192C21.7351 4.62192 21.9951 5.02192 22.2131 5.58192C22.3774 6.00442 22.5731 6.63942 22.6264 7.80942C22.6839 9.07442 22.6964 9.45442 22.6964 12.6569C22.6964 15.8594 22.6839 16.2394 22.6264 17.5044C22.5729 18.6744 22.3774 19.3094 22.2131 19.7319C21.9956 20.2919 21.7351 20.6907 21.3151 21.1104C20.8951 21.5304 20.4964 21.7904 19.9361 22.0079C19.5136 22.1729 18.8781 22.3679 17.7081 22.4214C16.4431 22.4789 16.0631 22.4914 12.859 22.4914C9.65475 22.4914 9.27499 22.4789 8.00998 22.4214C6.83997 22.3674 6.20496 22.1719 5.78171 22.0077C5.2217 21.7902 4.8217 21.5302 4.40169 21.1102C3.98169 20.6902 3.72168 20.2912 3.50368 19.7309C3.33943 19.3084 3.14368 18.6734 3.09043 17.5034C3.03293 16.2384 3.02143 15.8584 3.02143 12.6539C3.02143 9.44942 3.03293 9.07142 3.09043 7.80642C3.14393 6.63642 3.33943 6.00142 3.50368 5.57842C3.72118 5.01842 3.98169 4.61842 4.40169 4.19842C4.8217 3.77842 5.2217 3.51842 5.78171 3.30042C6.20471 3.13542 6.83997 2.94042 8.00998 2.88667C9.11699 2.83667 9.54599 2.82167 11.7825 2.81917V2.82217Z" fill="white"/>
<path d="M19.2388 4.78519C18.954 4.78519 18.6755 4.86966 18.4387 5.02791C18.2019 5.18616 18.0173 5.41109 17.9083 5.67424C17.7994 5.9374 17.7709 6.22696 17.8265 6.5063C17.8821 6.78565 18.0193 7.04223 18.2207 7.2436C18.4222 7.44497 18.6788 7.58208 18.9582 7.63758C19.2375 7.69309 19.5271 7.6645 19.7902 7.55543C20.0533 7.44637 20.2782 7.26172 20.4364 7.02485C20.5945 6.78798 20.6789 6.50952 20.6788 6.22469C20.6788 5.42969 20.0338 4.78519 19.2388 4.78519Z" fill="white"/>
<path fill-rule="evenodd" clip-rule="evenodd" d="M12.8332 6.46769C9.42994 6.46769 6.67066 9.22694 6.67066 12.6302C6.67066 16.0334 9.42994 18.7914 12.8332 18.7914C16.2365 18.7914 18.995 16.0334 18.995 12.6302C18.995 9.22694 16.2365 6.46769 12.8332 6.46769ZM12.8582 16.5972C15.0328 16.5972 16.7957 14.8343 16.7957 12.6597C16.7957 10.4851 15.0328 8.72219 12.8582 8.72219C10.6835 8.72219 8.92066 10.4851 8.92066 12.6597C8.92066 14.8343 10.6835 16.5972 12.8582 16.5972Z" fill="white"/>
</svg>
