<svg width="25" height="25" viewBox="0 0 25 25" fill="none" xmlns="http://www.w3.org/2000/svg">
<path fill-rule="evenodd" clip-rule="evenodd" d="M0.858154 12.6597C0.858154 6.03225 6.23074 0.659668 12.8582 0.659668C19.4856 0.659668 24.8582 6.03225 24.8582 12.6597C24.8582 19.2871 19.4856 24.6597 12.8582 24.6597C6.23074 24.6597 0.858154 19.2871 0.858154 12.6597ZM12.4988 10.4134L12.5239 10.8286L12.1042 10.7778C10.5766 10.5829 9.24198 9.92192 8.10882 8.81183L7.55484 8.26102L7.41214 8.66777C7.10997 9.57449 7.30302 10.5321 7.93255 11.1761C8.2683 11.532 8.19276 11.5828 7.61359 11.371C7.41214 11.3032 7.23587 11.2523 7.21909 11.2778C7.16033 11.3371 7.36178 12.1082 7.52126 12.4133C7.7395 12.837 8.18437 13.2522 8.6712 13.498L9.0825 13.6929L8.59566 13.7013C8.12561 13.7013 8.10882 13.7098 8.15919 13.8878C8.32706 14.4386 8.99017 15.0233 9.72882 15.2775L10.2492 15.4555L9.79597 15.7266C9.12447 16.1164 8.33545 16.3368 7.54644 16.3537C7.16872 16.3622 6.85815 16.3961 6.85815 16.4215C6.85815 16.5062 7.88219 16.9808 8.47815 17.1672C10.266 17.718 12.3896 17.4808 13.9844 16.5401C15.1176 15.8707 16.2508 14.5403 16.7796 13.2522C17.065 12.5658 17.3503 11.3117 17.3503 10.71C17.3503 10.3202 17.3755 10.2694 17.8456 9.80329C18.1226 9.53212 18.3828 9.23553 18.4331 9.15079C18.5171 8.98978 18.5087 8.98978 18.0806 9.13384C17.3671 9.38806 17.2664 9.35417 17.6189 8.97283C17.8792 8.70167 18.1897 8.21017 18.1897 8.06611C18.1897 8.04069 18.0638 8.08306 17.9211 8.15933C17.77 8.24407 17.4343 8.37118 17.1825 8.44744L16.7292 8.5915L16.3179 8.31186C16.0913 8.15933 15.7723 7.98985 15.6044 7.939C15.1764 7.82037 14.5216 7.83732 14.1355 7.9729C13.0863 8.35423 12.4232 9.33722 12.4988 10.4134Z" fill="white"/>
</svg>
