<svg width="25" height="25" viewBox="0 0 25 25" fill="none" xmlns="http://www.w3.org/2000/svg">
<g clip-path="url(#clip0_1069_8760)">
<path d="M24.6193 7.57676C24.6193 7.57676 24.385 5.92207 23.6631 5.19551C22.749 4.23926 21.7271 4.23457 21.2584 4.17832C17.9022 3.93457 12.8631 3.93457 12.8631 3.93457H12.8537C12.8537 3.93457 7.81465 3.93457 4.4584 4.17832C3.98965 4.23457 2.96777 4.23926 2.05371 5.19551C1.33184 5.92207 1.10215 7.57676 1.10215 7.57676C1.10215 7.57676 0.858398 9.52207 0.858398 11.4627V13.2814C0.858398 15.2221 1.09746 17.1674 1.09746 17.1674C1.09746 17.1674 1.33184 18.8221 2.04902 19.5486C2.96309 20.5049 4.16309 20.4721 4.69746 20.5752C6.61934 20.758 12.8584 20.8143 12.8584 20.8143C12.8584 20.8143 17.9022 20.8049 21.2584 20.5658C21.7271 20.5096 22.749 20.5049 23.6631 19.5486C24.385 18.8221 24.6193 17.1674 24.6193 17.1674C24.6193 17.1674 24.8584 15.2268 24.8584 13.2814V11.4627C24.8584 9.52207 24.6193 7.57676 24.6193 7.57676ZM10.3787 15.4893V8.74395L16.8615 12.1283L10.3787 15.4893Z" fill="white"/>
</g>
<defs>
<clipPath id="clip0_1069_8760">
<rect width="24" height="24" fill="white" transform="translate(0.858398 0.376953)"/>
</clipPath>
</defs>
</svg>
