<svg xmlns="http://www.w3.org/2000/svg" width="511.842" height="497.311" viewBox="0 0 135.425 131.58">
  <g transform="translate(219.935 -92.89)"/>
  <path d="M-77.232 129.493h-44.714c-14.965 0-28.886-.286-41.805 8.518-10.957 7.468-18.322 19.662-20.142 32.757-.8 5.745-1.145 13.395 6.12 14.944 3.965.846 7.996-1.168 9.608-4.89 1.416-3.266.739-7.368 1.63-10.848 2.217-8.65 8.164-15.901 16.014-20.064 8.376-4.442 17.833-3.484 26.987-3.484h46.302c0 4.027-1.292 10.777 2.12 13.7 2.243 1.92 5.51 1.598 7.646-.293 5.035-4.455 9.316-9.944 14.046-14.73 1.935-1.958 4.478-4.176 4.478-7.143 0-3.073-2.737-5.394-4.742-7.409-4.645-4.667-8.787-10.17-13.769-14.465-2.164-1.865-5.396-2.229-7.658-.292-3.413 2.922-2.12 9.673-2.12 13.699m-78.847 84.667c0-4.026 1.292-10.777-2.12-13.7-2.243-1.92-5.51-1.597-7.646.293-5.035 4.455-9.316 9.944-14.045 14.73-1.935 1.958-4.478 4.176-4.478 7.143 0 2.968 2.543 5.185 4.478 7.144 4.729 4.786 9.01 10.274 14.045 14.73 2.137 1.89 5.403 2.212 7.646.292 3.412-2.922 2.12-9.673 2.12-13.699h44.715c14.838 0 28.692.32 41.54-8.34 11.093-7.477 18.57-19.72 20.407-32.935.799-5.745 1.144-13.394-6.12-14.944-3.965-.846-7.996 1.168-9.609 4.89-1.32 3.045-.704 6.816-1.473 10.054-2.022 8.521-7.57 16.284-15.376 20.43-9.018 4.791-18.694 3.912-28.575 3.912z" style="fill:#a56dcd;stroke:none;stroke-width:.264583" transform="translate(184.367 -114.504)"/>
</svg>
