<svg xmlns="http://www.w3.org/2000/svg" width="512.409" height="511.024" viewBox="0 0 135.575 135.208">
  <g transform="translate(239.855 -93.926)"/>
  <path d="M-181.784 215.316c10.767 2.468 21.39 6.078 32.015 9.107 4.02 1.146 9.045 3.572 13.229 3.572s9.21-2.426 13.23-3.572c10.624-3.029 21.247-6.639 32.014-9.107v-69.85c0-8.436 2.269-20.53-5.028-26.637-4.706-3.94-10.032-3.462-15.61-2.258-8.155 1.76-15.6 4.107-18.246 13.02-1.06 3.567-.804 7.437-.804 11.113v74.348l-5.556 1.23-5.556-1.23v-74.348c0-3.676.255-7.546-.803-11.113-2.522-8.493-9.665-11.087-17.453-12.934-6.027-1.429-11.563-2.19-16.665 2.203-7.057 6.074-4.767 18.34-4.767 26.606zm101.6-98.69v106.628c-4.872.717-9.816 2.684-14.552 4.045-8.991 2.584-17.99 5.143-26.987 7.708-4.459 1.271-10.185 4.072-14.817 4.072s-10.358-2.801-14.817-4.072c-8.997-2.565-17.996-5.124-26.987-7.708-4.736-1.36-9.68-3.328-14.552-4.045V122.183c-12.251 1.836-11.377 16.957-11.377 25.929v83.608c16.11 3.335 32.063 9.093 47.89 13.605l12.964 3.705c2.163.616 4.612 1.72 6.88 1.72s4.715-1.104 6.878-1.72l12.965-3.705c15.826-4.512 31.778-10.27 47.89-13.605v-88.37c0-8.524 1.374-18.518-6.35-24.369-1.46-1.106-3.18-2.165-5.028-2.354" style="fill:#a56ecd;stroke:none;stroke-width:.264583" transform="translate(204.287 -115.54)"/>
</svg>
