<svg xmlns="http://www.w3.org/2000/svg" width="514.593" height="511.56" viewBox="0 0 136.153 135.35">
  <g transform="translate(215.953 -91.308)"/>
  <path d="M-173.557 113.116c-3.193.602-5.472 3.113-6.134 6.226-1.424 6.7-.216 14.845-.216 21.696v81.227c0 4.17-.302 8.407.991 12.435 4.013 12.508 15.705 13.494 26.79 13.494h93.398c3.318 0 7.041.527 10.054-1.15 5.53-3.08 5.53-11.553 0-14.633-3.964-2.207-9.898-1.15-14.287-1.15h-93.398c-2.217 0-5.093.533-6.303-1.854-.96-1.894-.312-5.317-.312-7.407v-82.55c0-6.31 1.296-14.266-.306-20.373-1.235-4.711-5.63-6.838-10.277-5.961m99.748 44.855c-4.284 4.284-8.534 8.596-12.965 12.724-1.323 1.232-3.065 3.904-5.027 4.048-1.89.14-4.13-2.334-5.556-3.355-4.074-2.916-7.705-6.155-12.7-7.358-13.243-3.19-21.764 8.547-30.427 16.386-3.336 3.018-8.878 6.6-10.552 10.893-2.504 6.42 3.287 13.171 10.023 11.397 2.784-.734 4.542-2.88 6.614-4.707 4.402-3.882 8.722-7.936 12.965-11.992 1.722-1.647 3.992-4.704 6.35-5.37 1.94-.547 4.117 1.896 5.556 2.922 4.114 2.933 7.89 6.5 12.965 7.637 10.928 2.45 17.976-4.37 25.135-11.53 3.31-3.309 6.748-6.484 10.054-9.789 0 3.662-.736 8.243.88 11.642 2.497 5.246 10.458 5.903 14.114 1.583 3.085-3.643 1.94-9.85 1.94-14.283 0-9.65-.021-19.121-9.26-24.853-1.632-1.013-3.432-1.82-5.293-2.3-3.782-.973-7.764-1.687-11.641-1.687-4.869 0-12.538-.438-16.38 3.224-3.891 3.71-3.02 11.23 1.828 13.71 3.316 1.699 7.777 1.058 11.377 1.058" style="fill:#a56dcd;stroke:none;stroke-width:.264583" transform="translate(180.385 -112.922)"/>
</svg>
