<svg xmlns="http://www.w3.org/2000/svg" width="511.566" height="512.487" viewBox="0 0 135.352 135.595">
  <g transform="translate(318.165 -62.791)"/>
  <path d="M-218.734 84.67c-15.781 2.072-30.09 6.48-42.069 17.639-24.89 23.184-29.352 62.696-8.759 90.199 4.652 6.213 10.258 11.622 16.697 15.962 6.367 4.291 13.45 7.533 20.902 9.404 8.489 2.133 17.257 2.687 25.93 1.547 32.305-4.248 57.306-32.063 58.726-64.484 1.423-32.48-22.064-62.559-53.964-68.95-5.558-1.114-11.796-2.06-17.463-1.317m2.381 28.285c2.895-.517 6.012.831 6.739 3.882.545 2.288.14 5.064.14 7.408v14.817c0 1.613-.77 6.055.425 7.249.96.96 3.872.424 5.132.424 4.148 0 12.463-1.608 15.56 1.615 2.724 2.835 1.696 7.883-2.066 9.24-2.073.75-4.961.258-7.144.258h-15.346c-2.631 0-5.224.106-6.844-2.386-1.119-1.72-.829-3.862-.829-5.817V137.74c0-6.63-.78-13.798.05-20.373.273-2.172 2.024-4.024 4.184-4.41" style="fill:#a56dcd;stroke:none;stroke-width:.264583" transform="translate(282.597 -84.405)"/>
</svg>
