<svg xmlns="http://www.w3.org/2000/svg" width="510" height="511.186" viewBox="0 0 134.938 135.251">
  <g transform="translate(182.529 -30.136)"/>
  <path d="M-146.961 158.955h28.046v28.046c2.55-1.796 4.675-4.41 6.879-6.615l12.435-12.435c1.915-1.914 4.834-6.248 7.409-7.113 1.234-.415 3.81 1.85 5.027 2.347 3.246 1.323 6.601 1.587 10.054 1.304 2.45-.201 5.02-1.025 7.144-2.257.834-.484 2.146-1.85 3.175-1.447 2.627 1.033 5.415 5.173 7.408 7.166l12.435 12.435c2.204 2.204 4.33 4.819 6.88 6.615v-28.046h28.045c-4.185-5.942-10.731-10.996-15.875-16.14-1.713-1.713-5.397-4.206-6-6.614-.518-2.064-.982-7.424.025-9.26 1.041-1.895 3.403-2.991 4.913-4.502 2.8-2.8 4.82-6.655 5.444-10.58.93-5.848-.45-12.138-4.43-16.668-1.806-2.055-5.275-3.751-6.261-6.35-.599-1.577.221-3.631.224-5.292.006-3.747-.404-7.212-2.202-10.583-3.525-6.61-10.124-10.022-17.377-10.535-2.214-.156-4.725 1.067-6.88.244-2.372-.907-3.991-4.13-5.82-5.825-3.112-2.884-7.208-4.463-11.377-4.975-5.61-.69-11.478 1.524-15.61 5.26-1.758 1.59-2.898 4.301-5.028 5.392-2.07 1.06-4.693-.124-6.879-.124-3.665 0-7.446 1.113-10.583 2.972-5.559 3.294-9.06 9.381-9.502 15.793-.173 2.52 1.199 5.889.09 8.201-.906 1.89-3.14 2.864-4.607 4.258-2.27 2.156-4.028 4.954-5.03 7.914a20.72 20.72 0 0 0 2.3 17.991c1.925 2.935 5.488 4.501 7.221 7.409 1.094 1.834.1 4.114.013 6.085-.047 1.077.279 2.403.02 3.44-.565 2.25-4.241 4.74-5.851 6.35-5.143 5.143-11.69 10.197-15.875 16.14m65.087-78.767c2.237-.323 4.742-.176 6.88.544 13.347 4.492 12.287 25.267-2.117 27.343-2.237.322-4.742.175-6.88-.544-13.347-4.492-12.287-25.268 2.117-27.343m24.871 50.72c-6.24 0-11.965 1.194-17.198 4.77-2.037 1.392-3.558 3.348-5.556 4.755-5.266-6.91-13.898-9.525-22.225-9.525 0-4.571-1.24-10.859 2.24-14.436 2.848-2.927 6.452-2.497 10.195-2.497h20.903c3.465 0 6.785-.271 9.402 2.46 3.466 3.62 2.24 9.876 2.24 14.473" style="fill:#a56dcd;stroke:none;stroke-width:.264583" transform="translate(146.961 -51.75)"/>
</svg>
