<svg xmlns="http://www.w3.org/2000/svg" width="514.265" height="512.356" viewBox="0 0 136.066 135.561">
  <g transform="translate(252.764 -86.486)"/>
  <path d="M-190.976 108.255c-11.31 1.503-21.038 8.234-24.598 19.467-2.395 7.556-1.33 16.252-1.33 24.077v43.92c0 11.987-2.171 25.957 5.333 36.248 7.606 10.432 18.496 11.642 30.385 11.642h49.477c8.66 0 17.618.257 26.458-.378 10.124-1.499 18.531-8.623 22.113-18.143 3.078-8.183 1.7-18.136 1.7-26.723V147.83c0-9.815.78-19.66-5.334-28.046-7.465-10.238-18.14-11.642-29.856-11.642h-49.477c-8.092 0-15.955-.15-24.87.113m24.87 73.177c-4.265 0-10.195 1.136-13.757-1.69-3.186-2.529-3.176-5.994-3.176-9.687 0-5.159-.472-10.516 3.97-14.164 4.12-3.384 12.926-3.487 17.99-2.325 6.966 1.6 6.35 9.12 6.35 14.637 0 12.226 1.19 25.313-10.848 32.645-3.416 2.081-8.365 3.858-12.435 3.258-3.576-.527-5.95-4.095-4.734-7.593 1.468-4.22 5.609-3.229 8.967-4.418 4.516-1.6 7.47-5.943 7.673-10.663m39.423 0c-4.342 0-10.132 1.098-13.754-1.768-2.963-2.343-3.18-5.871-3.18-9.345 0-5.166-.41-10.664 3.98-14.338 3.62-3.03 7.736-2.595 12.16-2.595 1.867 0 3.994-.28 5.821.14 7.085 1.626 6.35 9.099 6.35 14.677 0 12.153 1.332 25.133-10.583 32.526-3.467 2.151-8.548 3.99-12.7 3.377-3.435-.506-5.774-3.983-4.703-7.328 1.416-4.427 5.45-3.41 8.936-4.643 4.566-1.616 7.633-5.876 7.673-10.703" style="fill:#a56dcd;stroke:none;stroke-width:.264583" transform="translate(217.196 -108.1)"/>
</svg>
